{"glyphs":{":":{"x_min":0,"x_max":294,"ha":294,"o":"m 172 339 q 161 335 146 335 q 132 335 120 339 q 85 349 68 374 q 50 398 50 433 q 50 464 67 487 q 84 510 108 518 q 131 525 152 525 q 187 525 215 500 q 239 476 244 442 q 248 407 228 378 q 208 349 172 339 z m 172 -13 q 161 -17 146 -17 q 132 -17 120 -13 q 85 -3 68 22 q 50 46 50 81 q 50 112 67 135 q 84 158 108 166 q 131 173 152 173 q 187 173 215 147 q 239 124 244 90 q 248 55 228 26 q 208 -3 172 -13 z"},"$":{"x_min":0,"x_max":605,"ha":605,"o":"m 371 2 l 349 -3 l 349 -105 l 291 -106 l 291 -3 l 254 3 q 142 24 86 68 q 35 108 35 160 q 35 180 42 197 q 53 224 75 239 q 97 254 122 254 q 158 254 184 228 q 202 210 211 188 q 220 167 228 117 q 230 105 244 92 q 258 78 287 65 l 287 297 l 179 338 q 152 349 117 379 q 69 424 60 464 q 50 503 50 528 q 50 622 141 678 q 167 694 193 702 q 219 711 261 715 l 276 716 l 276 814 l 334 814 l 334 717 l 360 715 q 452 707 505 663 q 553 624 553 575 q 553 562 551 556 q 545 530 525 514 q 505 498 479 498 q 455 498 436 511 q 416 524 404 546 q 392 567 386 600 l 383 621 q 381 631 371 639 q 361 647 338 651 l 338 471 l 423 434 q 443 426 460 415 q 518 379 543 328 q 568 276 568 204 q 568 126 518 76 q 468 25 371 2 z m 278 659 q 264 659 253 655 q 193 635 193 585 q 193 571 198 556 q 203 542 218 528 q 234 513 257 504 l 278 498 z m 383 253 q 368 264 345 272 l 345 59 q 350 58 359 58 q 405 58 429 114 q 432 120 435 130 q 438 140 438 152 q 438 186 426 208 q 415 230 383 253 z"},"?":{"x_min":0,"x_max":468,"ha":468,"o":"m 418 454 q 393 411 343 384 l 267 341 q 242 327 232 302 q 223 277 226 261 l 230 229 l 191 229 q 170 268 170 310 q 170 333 176 362 q 181 391 185 407 q 189 423 197 435 l 250 512 l 257 528 q 271 562 271 593 q 271 630 249 652 q 227 674 200 674 q 188 674 177 670 q 144 660 133 634 q 130 626 130 618 q 130 589 160 580 q 165 578 176 578 q 187 578 195 582 q 201 573 202 563 q 205 552 205 543 q 205 512 180 492 q 156 471 117 471 q 74 471 47 500 q 20 529 20 575 q 20 600 29 627 q 43 666 80 691 q 117 716 185 726 q 205 730 228 730 q 233 730 241 730 q 249 729 259 728 q 348 718 396 668 q 444 619 444 544 q 444 495 418 454 z m 235 -13 q 224 -17 209 -17 q 195 -17 183 -13 q 148 -3 130 22 q 113 46 113 81 q 113 112 130 134 q 146 157 170 165 q 195 173 216 173 q 250 173 278 147 q 302 124 307 90 q 311 55 291 26 q 271 -3 235 -13 z"},"a":{"x_min":0,"x_max":511,"ha":511,"o":"m 326 0 l 322 29 q 312 23 304 18 q 297 13 282 7 q 228 -15 180 -15 q 123 -15 82 16 q 42 48 28 103 q 22 126 22 147 q 22 188 45 228 q 57 250 80 272 q 103 295 138 317 q 161 331 188 342 q 214 352 258 364 l 280 370 l 276 396 q 267 445 206 445 q 179 445 148 434 q 116 424 77 399 l 59 388 q 63 420 80 446 q 97 472 134 498 q 149 508 167 516 q 185 523 210 529 q 251 538 284 538 q 357 538 398 496 q 439 454 449 373 l 485 65 q 487 49 498 31 q 508 13 525 0 z m 285 334 q 259 318 242 298 q 226 278 212 244 q 197 210 197 182 q 196 176 196 170 q 196 162 196 159 q 196 112 216 82 q 237 52 271 52 q 300 52 317 76 z"},"L":{"x_min":0,"x_max":649,"ha":649,"o":"m 634 111 q 598 43 572 -23 q 555 -13 542 -10 q 530 -6 503 -6 l 420 0 l 412 0 l 15 0 q 41 32 52 75 q 58 102 58 120 l 58 629 q 58 640 52 658 q 45 676 30 701 l 16 720 l 282 720 l 271 708 q 238 668 238 616 l 238 58 q 255 55 270 55 q 304 55 352 72 q 377 80 406 94 q 436 107 514 147 l 545 159 q 571 167 582 168 q 592 170 610 170 q 634 170 663 162 z"},"3":{"x_min":0,"x_max":604,"ha":604,"o":"m 424 20 l 398 9 q 378 1 366 -2 q 338 -10 306 -10 q 239 -10 200 -6 q 162 -3 134 7 q 88 25 60 50 q 33 75 24 106 q 14 136 14 160 q 14 190 26 214 q 37 238 58 252 q 85 270 116 270 q 136 270 151 263 q 207 239 207 192 q 207 165 186 139 l 167 113 q 160 101 160 90 q 160 74 168 60 q 177 47 192 39 q 207 31 227 31 q 259 31 294 50 q 312 60 326 80 q 340 101 352 141 q 355 152 358 166 q 361 180 361 192 q 361 277 330 317 q 299 357 223 366 l 205 367 l 205 398 l 228 401 q 274 412 298 439 q 323 466 323 499 q 323 522 310 546 q 298 569 272 582 q 246 596 208 596 q 183 596 156 588 q 128 581 90 561 l 67 548 l 56 565 l 72 586 q 119 642 157 662 q 195 682 275 693 q 285 693 296 694 q 308 695 314 695 q 322 695 326 695 q 413 695 459 650 q 501 609 501 542 q 501 497 473 469 q 445 441 372 410 l 354 403 l 389 394 q 477 368 518 326 q 559 284 559 221 q 559 192 551 154 q 543 117 512 82 q 481 46 424 20 z"},";":{"x_min":0,"x_max":296,"ha":296,"o":"m 172 339 q 161 335 146 335 q 132 335 120 339 q 85 349 68 374 q 50 398 50 433 q 50 464 67 487 q 84 510 108 518 q 131 525 152 525 q 187 525 215 500 q 239 476 244 442 q 248 407 228 378 q 208 349 172 339 z m 187 -73 l 161 -104 l 120 -142 q 101 -160 83 -160 q 70 -160 66 -152 q 63 -144 61 -139 q 61 -134 74 -119 q 86 -104 96 -92 q 114 -71 114 -47 q 114 -26 99 -5 l 70 23 q 58 35 51 58 q 48 70 48 84 q 48 89 50 101 q 64 170 149 170 q 190 170 214 142 q 239 115 239 69 q 239 30 220 -17 q 213 -32 205 -46 q 197 -59 187 -73 z"},"J":{"x_min":0,"x_max":479,"ha":479,"o":"m 435 680 q 422 655 422 641 l 422 216 q 422 202 433 179 q 445 159 458 147 l 449 116 q 426 56 370 20 q 315 -15 223 -24 l 149 -24 q 79 -17 40 6 q 0 30 -10 67 q -14 82 -14 97 q -14 152 52 166 q 57 167 68 167 q 94 167 117 153 q 140 139 152 122 q 163 104 176 62 q 180 46 195 35 q 201 29 211 29 q 222 29 228 36 q 233 43 236 51 q 239 59 241 78 l 242 92 l 242 640 q 242 651 234 668 q 227 686 213 704 l 196 720 l 465 720 q 445 702 435 680 z"},"V":{"x_min":0,"x_max":658,"ha":658,"o":"m 566 510 q 559 492 556 483 q 550 468 547 455 l 450 144 q 467 119 487 100 q 507 82 542 62 l 562 51 q 484 35 414 14 q 393 8 378 2 q 362 -3 309 -22 l 27 663 q 18 684 -6 707 l -22 720 l 253 720 q 238 705 233 689 q 228 673 228 661 q 228 644 245 607 l 401 227 l 475 486 l 487 534 q 492 560 495 582 q 498 605 498 621 q 498 661 465 704 l 450 720 l 672 720 q 644 681 620 634 q 595 587 566 510 z"},"7":{"x_min":0,"x_max":603,"ha":603,"o":"m 394 420 q 382 407 370 376 q 359 344 359 295 q 359 268 368 227 q 378 186 400 119 q 402 111 402 104 q 402 90 395 65 q 385 27 354 4 q 324 -18 282 -18 q 268 -18 253 -15 q 212 -7 194 10 q 177 28 164 75 q 161 88 159 102 q 157 115 157 129 q 157 167 170 208 q 182 248 211 299 q 237 343 261 367 l 417 521 l 164 519 q 151 519 136 514 q 121 510 96 499 l 76 490 l 47 476 l 31 468 l 39 491 l 47 515 q 62 561 74 603 q 87 645 98 687 l 552 685 q 552 640 524 592 q 495 545 394 420 z"},"S":{"x_min":0,"x_max":695,"ha":695,"o":"m 632 73 q 605 39 576 21 q 546 3 490 -13 q 471 -19 447 -20 q 423 -22 366 -22 q 325 -22 201 7 q 189 10 171 10 q 166 10 149 8 q 132 6 124 4 q 116 2 101 -6 q 59 68 7 142 q 30 163 65 163 q 88 163 128 153 q 167 143 206 120 q 246 97 306 48 q 314 42 324 38 q 335 34 361 28 l 389 25 q 468 25 508 83 q 534 121 534 155 q 534 200 482 238 q 430 277 318 311 l 202 345 q 186 351 171 358 q 156 365 133 381 q 81 414 59 457 q 37 500 37 561 q 37 598 52 628 q 68 658 99 686 q 142 724 223 737 q 237 739 248 740 q 259 742 273 742 q 290 742 436 721 l 460 718 q 485 718 498 719 q 512 720 532 726 l 623 586 q 597 571 567 571 q 544 571 511 582 l 491 591 l 488 592 l 403 651 q 344 691 295 691 q 281 691 268 687 q 254 683 242 676 q 201 650 201 604 q 201 563 236 536 q 251 524 280 513 q 310 502 341 493 l 428 467 q 537 434 583 404 q 629 374 657 317 q 675 280 680 241 q 680 184 670 146 q 660 109 632 73 z"},"Z":{"x_min":0,"x_max":657,"ha":657,"o":"m 558 -14 q 530 -5 508 -2 q 485 0 437 0 q 415 0 402 0 l -14 0 q 17 29 42 62 q 66 94 99 152 l 395 666 l 380 665 q 343 665 312 652 q 287 642 201 592 l 154 563 q 148 559 135 554 q 122 550 107 547 q 92 544 74 543 q 55 542 44 542 l 54 565 q 81 632 92 663 q 103 694 108 713 l 110 720 l 112 733 l 126 728 q 150 720 183 720 l 636 720 l 252 57 l 266 57 l 283 57 q 336 57 385 76 q 441 98 551 163 q 563 171 600 176 q 606 177 620 177 q 626 177 636 176 q 645 175 657 173 q 600 82 558 -14 z"},"x":{"x_min":0,"x_max":524,"ha":524,"o":"m 273 0 q 294 15 294 41 q 294 56 285 71 l 228 168 l 173 92 q 161 74 161 63 q 161 54 167 39 l 173 24 l 175 20 q 179 10 188 0 l -14 0 q 36 42 84 101 l 189 233 l 76 425 q 59 454 21 475 l -1 485 q 104 500 199 542 l 308 358 l 351 428 q 356 435 356 452 q 356 456 354 475 q 351 494 331 511 l 529 511 l 503 488 q 455 443 425 410 q 400 382 382 357 l 342 300 l 479 68 q 481 64 508 32 l 538 0 z"},")":{"x_min":0,"x_max":361,"ha":361,"o":"m 280 137 q 258 78 237 41 q 216 4 172 -54 l 151 -79 l 18 -78 l 36 -48 q 85 34 104 82 q 124 130 137 201 q 143 238 144 252 q 146 266 146 288 q 146 301 146 310 q 146 320 146 326 q 146 378 144 420 q 143 463 128 524 q 113 584 95 628 q 77 671 31 754 l 17 780 l 7 797 l 143 798 l 180 749 q 254 644 286 548 q 318 451 318 343 q 318 243 280 137 z"},"&":{"x_min":0,"x_max":817,"ha":817,"o":"m 692 228 q 629 204 584 162 l 597 140 l 644 79 q 648 73 662 60 q 675 48 696 31 q 716 14 742 0 l 437 0 q 442 7 448 25 q 450 37 449 43 q 449 55 438 53 l 414 45 l 411 43 l 368 13 q 356 6 353 4 q 336 -5 317 -13 l 290 -22 q 276 -27 259 -30 q 242 -33 219 -33 q 195 -33 178 -29 q 126 -17 89 14 q 52 46 38 86 q 25 125 25 157 q 25 242 112 314 q 119 320 127 326 q 129 328 144 337 l 153 342 l 179 356 l 215 375 l 202 398 q 173 458 173 505 q 173 565 216 604 q 258 642 340 654 q 363 657 383 657 q 466 657 520 618 q 575 579 575 532 q 575 519 570 501 q 561 472 534 453 q 508 434 476 434 q 470 434 462 436 q 453 437 449 438 q 392 452 392 502 l 409 503 q 458 514 458 552 q 458 564 452 576 q 439 606 384 606 q 357 606 338 569 q 333 557 333 545 q 333 526 343 505 l 350 492 l 544 217 q 584 240 609 271 q 651 319 666 391 l 670 417 q 713 345 762 292 l 800 252 q 767 252 732 242 q 722 239 692 228 z m 263 311 q 251 328 243 328 q 240 328 234 324 q 223 314 214 301 q 188 261 188 233 q 188 226 192 203 q 197 180 207 161 q 226 126 256 108 q 285 91 329 91 q 349 91 366 96 q 383 100 399 110 z"},"_":{"x_min":0,"x_max":576,"ha":576,"o":"m 0 0 l 0 36 l 576 36 l 576 0 z"},"v":{"x_min":0,"x_max":541,"ha":541,"o":"m 435 280 l 370 99 q 365 84 365 75 q 365 55 399 15 l 406 7 l 353 3 q 285 -4 216 -18 l 36 440 q 23 473 -2 500 l -14 511 l 235 511 q 216 488 216 457 q 216 431 230 397 l 321 167 l 366 302 q 367 306 370 314 q 372 323 373 330 q 382 375 382 408 q 382 445 372 470 q 362 494 342 511 l 555 511 q 520 467 492 414 q 464 362 435 280 z"},"O":{"x_min":0,"x_max":819,"ha":819,"o":"m 783 291 q 764 184 712 115 q 659 46 590 13 q 521 -20 423 -20 q 391 -20 354 -15 q 241 3 161 68 q 81 134 48 229 q 38 255 33 292 q 28 328 28 363 q 28 377 30 392 q 31 406 35 424 q 44 471 56 500 q 68 530 94 569 q 113 598 138 623 q 174 659 206 680 q 239 701 274 712 l 255 690 q 218 645 202 599 q 185 553 185 494 q 185 467 189 432 q 193 398 202 366 q 211 334 233 284 q 244 256 262 227 q 311 147 360 111 q 395 85 432 72 q 468 60 502 60 q 578 60 620 106 q 663 153 663 239 q 663 275 656 310 q 648 346 638 373 q 611 450 582 494 q 552 539 514 565 q 468 596 419 596 q 377 596 344 574 q 310 551 299 514 q 294 496 294 482 q 294 423 342 397 q 350 392 361 389 q 372 386 380 386 q 399 386 412 396 q 426 407 429 424 l 417 424 q 361 424 361 475 q 361 494 375 508 q 389 522 412 526 q 446 532 474 506 q 502 481 502 437 q 502 392 465 356 q 433 326 383 326 q 356 326 329 336 q 278 353 249 394 q 220 436 220 497 q 220 563 249 617 q 278 671 334 706 q 390 742 457 742 q 514 742 576 716 q 637 691 687 634 q 737 578 766 497 q 788 434 788 357 q 788 341 787 324 q 786 308 783 291 z"},"(":{"x_min":0,"x_max":361,"ha":361,"o":"m 218 -79 l 181 -31 q 107 74 75 170 q 43 267 43 375 q 43 431 52 479 q 61 527 82 584 q 104 642 124 678 q 144 714 189 772 l 209 798 l 343 796 l 324 766 q 276 686 256 636 q 237 586 224 517 q 221 500 218 475 q 215 450 215 431 q 215 380 216 321 q 217 262 232 198 q 248 135 266 89 q 285 43 329 -36 l 344 -62 l 354 -79 z"},"C":{"x_min":0,"x_max":768,"ha":768,"o":"m 628 38 q 536 -24 426 -24 q 368 -24 300 -6 q 259 4 221 23 q 151 59 110 108 q 68 158 44 237 q 25 295 25 363 q 25 408 36 457 q 53 531 80 578 q 107 624 158 665 q 221 718 299 735 q 348 746 384 746 q 435 746 486 726 q 538 707 627 656 q 632 653 642 649 q 653 645 666 642 q 679 640 694 640 q 703 640 708 641 l 713 625 q 723 595 723 561 q 723 527 711 482 q 702 454 692 436 q 629 323 504 323 q 491 323 478 323 q 465 326 459 327 q 389 339 346 385 q 303 431 303 484 q 303 506 312 526 q 321 546 332 557 q 344 568 358 572 q 372 575 382 575 q 400 575 415 565 q 439 548 439 522 q 439 492 426 478 q 414 463 380 452 l 367 449 q 378 400 435 400 q 475 400 502 432 q 530 465 530 521 q 530 545 524 574 q 509 638 455 670 q 420 691 379 691 q 349 691 314 679 q 266 662 236 608 q 203 549 203 464 q 203 429 209 388 q 226 283 282 216 q 337 150 428 124 q 470 111 513 111 q 602 111 733 188 l 750 199 q 725 105 628 38 z"},"W":{"x_min":0,"x_max":1010,"ha":1010,"o":"m 984 676 q 957 641 932 587 q 902 521 856 393 l 843 349 l 786 151 l 793 138 q 814 100 830 81 q 846 62 870 49 l 848 44 l 801 34 q 744 22 720 14 q 695 7 656 -10 l 490 373 l 404 146 l 411 126 q 423 100 440 79 q 457 58 479 44 q 418 28 372 15 q 326 2 266 -20 l 47 613 q 32 656 -1 703 l -14 720 l 244 720 q 228 695 228 664 q 228 655 229 650 q 229 638 235 620 l 365 245 l 532 725 l 740 247 l 795 412 q 807 446 817 499 q 832 580 832 623 q 832 659 822 680 q 811 702 787 720 l 1024 720 q 1013 710 1004 700 q 994 689 984 676 z"},"A":{"x_min":0,"x_max":667,"ha":667,"o":"m 431 0 l 441 13 q 458 37 458 61 q 458 74 454 89 l 411 274 l 186 274 l 162 176 q 158 160 158 139 q 158 110 167 82 q 176 55 197 25 l 217 0 l -7 0 q 15 32 33 69 q 51 106 74 173 l 87 215 l 208 681 q 204 682 196 682 q 170 682 141 645 q 134 636 127 610 q 126 604 112 592 l 94 582 q 80 578 74 578 q 53 578 38 594 q 24 609 24 631 q 24 667 58 696 q 93 724 167 739 q 176 741 194 742 q 211 743 221 743 q 234 743 240 743 q 253 744 258 744 q 270 744 298 733 q 366 706 446 674 q 473 663 499 658 q 525 654 552 654 q 527 620 527 577 q 527 563 528 556 l 540 507 l 643 73 q 648 55 659 39 q 666 29 683 12 l 696 0 z m 346 547 q 329 620 272 654 l 203 336 l 396 337 z"},"f":{"x_min":0,"x_max":300,"ha":300,"o":"m 289 582 q 277 580 271 580 q 242 580 222 600 q 203 621 203 655 q 204 662 204 666 l 207 688 q 211 707 189 719 q 182 723 174 723 q 149 723 144 704 q 140 686 142 673 q 142 662 149 648 l 195 574 q 209 552 214 540 q 218 527 217 511 l 272 511 l 272 446 l 217 446 l 217 100 q 217 60 245 17 l 258 0 l 13 0 q 31 21 40 45 q 47 60 49 70 q 51 80 51 90 l 51 446 l 7 446 l 7 511 l 51 511 l 51 549 q 8 576 8 633 q 8 638 8 644 q 10 652 10 656 q 15 695 55 725 q 82 743 106 749 q 131 755 164 755 q 189 755 215 755 q 252 753 275 744 q 319 725 334 695 q 339 685 341 674 q 343 663 343 654 q 343 627 328 607 q 314 587 289 582 z"},"Q":{"x_min":0,"x_max":794,"ha":794,"o":"m 655 -71 q 639 -41 637 -37 q 632 -29 615 -6 l 599 15 l 593 24 l 580 41 q 508 -18 390 -18 q 381 -18 373 -18 q 361 -16 355 -16 q 283 -16 223 16 q 163 47 114 105 q 44 188 31 312 q 31 328 30 344 q 30 360 30 376 q 30 382 30 385 q 42 525 138 629 q 175 669 217 696 q 259 723 299 734 l 274 706 q 242 668 226 636 q 210 604 198 555 q 187 506 187 464 q 187 442 190 419 q 208 273 284 189 q 313 156 344 132 q 374 108 398 96 q 440 75 477 75 q 502 75 528 87 l 485 124 l 406 191 l 402 195 l 357 227 l 309 257 q 399 309 479 376 l 482 358 q 491 328 514 307 l 642 191 q 657 226 657 264 q 657 300 642 350 q 623 415 574 478 q 557 499 552 505 q 543 515 527 529 q 484 567 434 588 q 385 609 342 609 q 315 609 294 602 l 289 601 l 267 591 l 240 580 l 252 614 q 310 740 455 740 q 505 740 546 726 q 586 713 628 680 q 661 655 690 616 q 718 576 737 527 q 749 495 756 464 q 764 434 764 401 l 765 360 q 765 307 754 273 q 743 239 704 166 l 694 147 q 728 116 777 92 l 794 84 q 724 14 655 -71 z"},"w":{"x_min":0,"x_max":737,"ha":737,"o":"m 703 416 l 698 405 l 666 319 l 585 100 q 583 94 583 89 q 583 81 585 74 q 587 67 594 51 q 596 47 602 38 q 607 28 615 18 l 630 0 q 608 0 586 -3 q 563 -6 550 -8 l 454 -26 l 361 199 l 309 109 l 314 89 q 322 64 334 43 q 346 22 365 4 q 272 -5 178 -29 l 28 457 q 23 473 -2 500 l -14 511 l 234 511 q 212 486 212 447 q 212 441 213 433 q 214 425 214 420 l 217 405 l 279 203 l 410 489 l 547 174 l 581 288 q 584 296 586 306 q 588 317 589 323 q 596 365 596 399 q 596 425 590 446 q 585 468 573 490 l 560 511 l 751 511 q 738 489 724 460 q 709 432 703 416 z"},"-":{"x_min":0,"x_max":370,"ha":370,"o":"m 36 212 l 36 342 l 334 342 l 334 212 z"},"E":{"x_min":0,"x_max":704,"ha":704,"o":"m 625 19 l 609 -14 q 547 0 474 0 l 14 0 q 38 24 48 52 q 57 79 57 96 l 57 627 q 57 645 48 671 q 35 700 15 720 l 441 720 q 463 720 490 724 q 517 728 546 737 l 571 745 q 586 706 604 670 q 631 617 665 570 q 636 557 605 557 q 568 557 509 577 q 476 589 443 607 q 398 633 363 653 q 358 656 346 660 q 333 665 322 668 q 294 675 256 675 l 237 674 l 237 445 l 281 443 q 330 443 366 448 q 401 453 437 464 q 473 475 494 486 q 515 496 534 511 l 545 470 q 574 375 622 299 l 584 284 l 556 302 q 485 348 403 366 q 373 374 348 377 q 323 380 294 380 q 280 380 270 380 q 261 380 237 376 l 237 58 q 255 51 274 51 q 296 51 332 58 q 369 64 406 80 q 443 97 507 138 l 540 153 q 605 176 644 176 q 673 176 697 166 q 672 131 658 104 q 645 77 625 19 z"},"s":{"x_min":0,"x_max":528,"ha":528,"o":"m 370 -1 q 356 -5 343 -7 q 330 -9 308 -9 q 269 -9 205 1 q 196 2 187 1 q 178 0 156 -6 q 144 -9 135 -12 q 126 -16 111 -23 l 88 11 q 54 60 14 109 q 43 125 74 125 q 108 125 152 106 q 197 88 255 48 q 265 41 280 38 q 294 35 311 35 q 329 35 344 40 q 360 44 369 53 q 389 75 389 96 q 389 123 358 148 q 349 155 341 159 q 333 163 302 173 l 140 227 l 111 240 q 70 262 50 296 q 29 331 29 374 q 29 415 46 444 q 62 473 99 502 q 122 520 147 528 q 172 535 211 535 q 238 535 266 532 q 295 529 339 521 q 347 520 358 523 q 375 530 387 534 q 419 472 461 410 q 435 403 416 403 q 389 403 357 415 q 338 422 324 430 q 311 437 270 464 q 251 477 230 484 q 210 490 197 490 q 178 489 165 474 q 152 459 152 441 q 152 432 155 424 q 163 405 195 384 q 198 382 210 377 q 222 372 255 362 l 389 323 q 398 321 414 313 q 507 266 507 176 q 507 130 479 81 q 444 21 370 -1 z"},"l":{"x_min":0,"x_max":266,"ha":266,"o":"m 14 0 q 33 20 42 47 q 50 74 50 118 l 50 636 q 50 688 15 706 q 95 706 171 735 l 216 756 l 216 88 q 216 29 252 0 z"},"8":{"x_min":0,"x_max":604,"ha":604,"o":"m 447 13 q 431 4 411 -2 q 391 -8 370 -11 q 350 -14 332 -15 q 313 -16 298 -16 q 188 -16 111 35 q 40 82 25 152 q 21 168 21 189 q 21 234 45 274 q 69 313 119 346 l 145 362 l 131 378 q 70 448 70 515 q 70 531 73 551 q 90 668 223 703 q 250 710 284 710 q 301 710 309 709 l 296 702 l 288 698 l 269 689 l 264 687 q 241 678 225 643 q 217 624 217 604 q 217 568 240 534 q 264 500 308 479 l 370 449 q 386 460 396 476 q 405 491 405 509 q 405 566 378 586 q 352 605 330 605 q 313 605 284 596 l 269 591 q 272 618 286 639 q 301 660 330 676 q 356 692 392 692 q 401 692 412 690 q 424 688 438 685 q 484 673 509 637 q 531 606 531 563 q 531 548 526 526 q 518 494 504 476 q 489 458 444 427 l 433 419 l 447 410 q 520 358 550 317 q 579 276 579 222 q 579 203 574 171 q 566 123 535 83 q 504 43 447 13 z m 383 238 l 354 256 l 203 334 q 161 312 161 261 q 161 235 173 196 q 182 167 202 140 q 223 113 255 91 q 283 72 320 60 q 358 47 386 47 q 418 47 437 63 q 467 87 467 119 q 467 142 450 172 q 434 203 383 238 z"},"e":{"x_min":0,"x_max":517,"ha":517,"o":"m 483 50 q 467 31 444 18 q 422 4 380 -8 q 339 -19 301 -19 q 263 -19 218 -7 q 160 9 119 41 q 78 73 57 109 q 36 145 26 203 q 21 235 21 259 q 21 295 31 335 q 47 394 78 436 q 110 478 156 502 q 191 521 223 526 q 255 530 275 530 q 323 530 381 499 q 412 482 437 448 q 462 414 475 368 q 484 339 484 308 q 484 287 479 262 l 189 262 l 199 227 q 225 157 284 116 q 342 74 415 74 q 450 74 483 84 l 510 93 q 500 70 483 50 z m 304 376 q 293 435 253 457 q 247 461 238 463 q 230 465 224 465 q 186 465 174 425 q 167 403 167 373 q 167 365 169 341 l 172 318 l 307 318 l 308 338 q 308 360 304 376 z"},"b":{"x_min":0,"x_max":538,"ha":538,"o":"m 446 67 q 408 17 364 -2 q 320 -22 254 -22 q 220 -22 135 9 q 126 13 110 13 q 106 13 84 10 q 61 8 35 -12 q 45 38 45 93 l 45 659 q 45 675 24 697 l 14 706 q 26 706 42 708 q 57 709 65 710 q 102 715 138 726 q 175 738 210 756 l 210 473 l 220 482 q 242 502 262 512 q 281 523 304 528 q 314 529 323 530 q 332 532 344 532 q 383 532 414 513 q 445 494 475 451 q 496 420 506 386 q 516 352 516 303 q 516 284 516 265 q 513 247 512 239 q 507 190 490 146 q 473 103 446 67 z m 330 291 q 330 363 312 398 q 295 432 266 438 q 263 439 260 439 q 256 439 255 439 q 235 439 222 428 q 210 416 210 400 l 210 70 q 210 55 224 44 q 238 32 258 32 q 265 32 269 33 q 287 37 298 61 q 309 85 324 158 q 326 165 329 188 q 332 211 332 243 z"},"%":{"x_min":0,"x_max":626,"ha":626,"o":"m 248 389 q 212 357 168 357 q 147 357 127 364 q 82 379 57 415 q 29 456 29 522 l 29 548 l 31 571 q 37 613 48 637 q 60 661 83 683 q 123 720 168 720 q 210 720 249 687 q 297 647 304 561 q 304 437 248 389 z m 74 4 l 71 1 l 29 34 l 548 716 l 589 680 z m 565 60 q 523 -1 460 -1 q 447 -1 440 0 q 390 8 355 56 q 320 105 320 181 q 320 263 360 312 q 400 360 456 360 q 465 360 470 359 q 517 353 542 331 q 567 309 585 257 q 597 227 597 184 q 597 176 596 168 q 595 159 595 154 q 589 93 565 60 z m 213 593 l 191 613 q 160 640 137 647 q 132 649 125 650 q 119 651 114 651 q 91 651 76 636 q 61 621 61 596 q 61 577 68 556 q 76 536 97 508 q 128 464 157 442 q 186 420 211 420 q 269 420 269 477 q 269 493 262 514 q 255 536 244 553 q 233 570 213 593 z m 512 234 q 502 244 491 255 q 476 269 464 278 q 439 297 412 297 q 371 297 358 257 l 355 243 q 355 217 375 179 q 399 134 438 100 q 465 76 499 69 q 509 67 513 67 q 536 67 550 84 q 564 101 564 128 q 564 173 512 234 z"},"m":{"x_min":0,"x_max":783,"ha":783,"o":"m 543 0 q 567 35 567 80 l 567 387 q 567 405 552 423 l 541 432 q 530 438 519 438 q 493 438 481 413 q 477 406 475 397 q 473 388 473 370 l 473 77 q 473 30 497 0 l 283 0 q 295 15 302 34 q 308 54 308 70 l 308 395 q 308 414 294 427 q 280 440 260 440 q 241 440 228 424 q 214 409 214 385 l 214 67 q 214 40 226 16 l 236 0 l 16 0 q 29 14 39 37 q 49 60 49 79 l 49 423 q 49 426 48 429 q 46 437 36 456 q 27 474 14 490 q 67 490 116 502 q 165 515 214 540 l 214 474 q 254 517 309 531 q 336 538 360 538 q 409 538 455 492 l 469 477 l 494 499 q 550 538 606 538 q 618 538 624 537 q 676 530 704 504 q 733 479 733 445 l 733 81 q 733 68 738 52 q 743 36 755 18 l 769 0 z"},",":{"x_min":0,"x_max":265,"ha":265,"o":"m 173 -73 l 147 -104 l 106 -142 q 87 -160 69 -160 q 56 -160 52 -152 q 49 -144 47 -139 q 47 -134 60 -119 q 72 -104 82 -92 q 100 -71 100 -47 q 100 -26 85 -5 l 56 23 q 44 35 37 58 q 34 70 34 84 q 34 89 36 101 q 50 170 135 170 q 176 170 200 142 q 225 115 225 69 q 225 30 206 -17 q 199 -32 191 -46 q 183 -59 173 -73 z"},"n":{"x_min":0,"x_max":524,"ha":524,"o":"m 287 0 l 298 20 q 309 43 309 57 l 309 413 q 309 446 267 446 q 255 446 242 443 q 230 440 222 424 q 215 409 215 375 l 215 56 l 214 27 q 214 11 237 0 l 14 0 l 31 14 q 50 36 50 63 l 50 432 q 50 442 44 454 q 39 466 28 478 l 16 489 q 69 489 118 502 q 168 515 215 540 l 215 486 l 233 498 q 291 537 334 537 q 402 537 436 510 q 469 482 474 421 l 474 399 l 474 114 q 474 93 480 72 q 486 50 502 16 l 510 0 z"},"h":{"x_min":0,"x_max":524,"ha":524,"o":"m 283 0 q 308 28 308 77 l 308 401 q 308 417 294 428 q 281 440 261 440 q 254 440 251 439 q 215 430 215 399 l 215 85 q 215 33 251 0 l 14 0 l 27 15 q 37 29 43 46 q 49 63 49 75 l 49 649 q 49 665 40 680 q 31 696 16 706 q 65 706 112 719 q 160 732 215 756 l 215 478 q 232 496 250 506 q 269 516 298 522 q 327 528 345 528 q 403 528 438 496 q 474 465 474 418 l 474 88 q 474 33 510 0 z"},"z":{"x_min":0,"x_max":526,"ha":526,"o":"m 469 48 l 432 -23 q 405 -8 384 -4 q 363 0 307 0 l -22 0 q 1 28 10 40 q 30 68 40 82 q 62 111 70 122 q 87 145 101 169 l 297 469 q 249 459 209 440 q 169 422 105 379 q 99 375 88 374 q 78 373 45 373 q 83 451 98 534 q 137 519 170 515 q 203 511 297 511 l 517 511 l 214 38 q 257 38 294 52 q 332 67 422 120 q 431 125 442 128 q 452 131 468 133 q 485 133 495 132 q 505 130 519 124 q 492 88 469 48 z"},"B":{"x_min":0,"x_max":749,"ha":749,"o":"m 591 28 q 561 15 526 8 q 490 1 423 1 l 371 0 l 15 0 q 38 26 47 58 q 56 91 56 151 l 56 609 q 45 607 30 602 q 15 597 0 590 l -7 630 l 12 645 q 88 701 189 728 q 220 736 244 740 q 269 745 290 745 q 389 745 442 739 q 494 733 539 712 q 599 683 636 644 q 673 605 673 559 q 673 486 593 447 q 580 440 573 437 q 566 434 545 427 q 534 423 517 418 q 500 414 483 411 l 509 405 q 617 379 673 328 q 729 277 729 213 q 729 168 701 118 q 686 90 659 68 q 632 45 591 28 z m 325 684 q 304 687 288 687 q 260 687 236 674 l 236 441 l 264 440 q 352 440 396 467 q 441 494 448 544 q 449 551 449 564 q 449 669 325 684 z m 442 340 q 417 360 380 372 q 342 384 294 384 q 279 384 270 384 q 260 384 236 380 l 236 61 q 244 60 261 59 q 278 58 292 58 q 399 58 453 100 q 507 143 507 217 q 507 231 505 249 q 503 267 488 292 q 472 318 442 340 z"},"K":{"x_min":0,"x_max":742,"ha":742,"o":"m 449 0 q 473 22 473 53 q 473 64 470 76 q 467 87 460 100 l 297 412 q 270 385 249 348 l 236 321 l 236 69 q 236 59 242 45 q 249 31 264 12 l 274 0 l 14 0 l 30 16 q 56 48 56 78 l 56 645 q 56 655 50 668 q 45 681 29 704 l 16 720 l 268 720 l 254 704 q 236 678 236 648 l 236 458 l 413 655 q 438 683 490 714 q 507 724 528 732 q 549 741 571 745 l 599 749 q 605 749 614 750 q 624 751 632 751 q 666 751 692 739 q 735 719 735 674 q 735 640 708 612 q 681 585 644 585 q 631 585 612 588 q 593 591 567 608 l 556 616 l 546 624 q 537 633 519 633 q 495 633 464 614 l 452 604 l 408 551 l 680 66 l 710 31 l 742 0 z"},"R":{"x_min":0,"x_max":709,"ha":709,"o":"m 398 0 l 409 14 q 419 28 422 40 q 424 52 424 56 q 424 63 424 66 q 424 82 418 94 l 291 361 l 237 361 l 237 86 q 237 55 261 16 l 274 0 l 14 0 q 50 28 56 79 l 57 95 l 57 628 q 57 690 14 720 l 414 720 q 498 720 550 706 q 601 693 636 665 q 692 620 692 551 q 692 513 674 478 q 655 444 619 419 q 595 403 568 391 q 541 379 508 372 l 470 365 l 625 84 q 629 75 649 50 q 666 30 678 20 q 690 10 709 0 z m 469 587 q 458 612 440 628 q 422 645 394 655 q 365 665 351 665 l 237 669 l 237 441 l 351 440 q 403 440 432 455 q 460 470 473 504 q 479 521 479 539 q 479 564 469 587 z"},"T":{"x_min":0,"x_max":666,"ha":666,"o":"m 606 548 q 545 559 508 603 l 458 664 q 454 670 440 670 q 437 670 421 668 l 421 80 q 421 70 424 60 q 428 51 437 36 q 452 13 474 0 l 188 0 q 214 17 228 42 q 241 67 241 91 l 241 667 q 217 667 201 656 q 185 645 138 596 l 118 575 q 115 571 106 566 q 91 557 79 552 q 55 542 27 542 q 8 542 -14 550 q 4 579 16 606 q 28 633 50 696 l 69 749 q 83 741 100 735 q 118 729 144 724 q 171 720 186 720 l 437 720 q 454 720 462 720 q 506 720 517 721 q 528 722 555 731 q 570 735 578 738 q 586 740 604 748 l 611 719 q 640 615 680 549 q 660 545 636 545 q 621 545 606 548 z"},"P":{"x_min":0,"x_max":644,"ha":644,"o":"m 570 413 q 550 397 530 387 q 510 377 400 330 l 386 323 q 348 300 332 279 q 315 258 311 230 l 322 232 q 330 233 333 233 q 343 234 350 234 q 374 234 384 226 q 395 218 400 198 q 403 180 390 160 q 373 133 341 133 q 324 133 305 141 q 286 149 274 166 q 263 184 260 201 q 258 218 258 227 q 258 246 264 264 q 269 283 280 306 q 292 328 312 346 q 331 363 384 400 q 404 414 422 440 q 448 475 448 522 q 448 537 447 545 q 446 553 441 568 q 433 592 419 611 q 378 670 296 670 q 278 670 268 669 l 237 664 l 237 107 l 239 86 q 246 53 259 33 q 272 13 294 0 l 14 0 q 57 41 57 105 l 57 620 q 57 664 29 702 l 14 720 l 426 720 q 483 720 527 699 q 571 678 598 648 q 624 617 632 579 q 636 563 636 543 q 636 467 570 413 z"},"t":{"x_min":0,"x_max":312,"ha":312,"o":"m 246 -8 q 230 -15 221 -18 q 212 -20 202 -20 q 195 -20 186 -21 q 178 -22 174 -22 q 68 -22 51 78 l 50 99 l 50 446 l -4 446 q 87 514 160 585 l 215 640 l 215 511 l 302 511 l 302 446 l 215 446 l 215 105 q 215 63 264 63 q 275 63 287 66 l 313 75 l 326 82 q 319 53 300 31 q 281 9 246 -8 z"},"M":{"x_min":0,"x_max":847,"ha":847,"o":"m 576 0 q 596 19 604 40 q 613 61 613 94 q 613 118 607 150 l 545 497 l 394 45 l 186 508 l 151 208 q 148 185 148 164 q 148 76 193 0 l -14 0 l -4 14 q 18 49 32 82 q 46 116 50 143 l 120 598 q 121 602 121 612 q 121 639 108 670 q 95 701 66 720 l 352 720 l 342 704 q 328 679 328 652 q 328 632 337 612 l 428 404 l 500 600 q 511 629 511 657 q 511 697 485 720 l 756 720 q 731 711 717 690 q 703 669 703 643 q 703 634 704 629 l 800 93 q 803 76 814 56 q 824 37 840 19 l 861 0 z"},"g":{"x_min":0,"x_max":534,"ha":534,"o":"m 413 -152 q 380 -164 340 -172 q 299 -180 255 -180 q 113 -180 83 -168 q 65 -161 54 -154 q 44 -148 36 -140 q 21 -125 21 -105 q 21 -76 49 -63 q 63 -57 77 -57 q 87 -57 100 -59 q 112 -61 140 -78 q 167 -94 203 -118 q 211 -123 220 -126 q 228 -128 247 -128 q 258 -128 270 -127 q 282 -126 292 -123 q 324 -112 342 -90 q 360 -68 360 -44 q 360 -32 354 -23 l 322 20 l 308 39 q 276 -2 227 -11 q 213 -14 201 -14 q 135 -14 86 44 q 33 107 23 215 q 22 222 22 228 q 22 235 22 238 q 22 247 23 258 q 24 270 24 276 q 31 345 62 402 q 94 459 138 490 q 173 514 210 524 q 246 533 298 533 q 330 533 422 510 q 425 509 433 509 q 438 509 444 509 q 455 512 467 514 q 479 516 496 526 l 491 510 q 490 507 484 479 q 479 451 479 443 l 479 81 l 503 42 q 527 3 527 -32 q 527 -70 499 -100 q 471 -130 413 -152 z m 313 419 q 313 428 305 445 l 295 459 q 283 474 263 474 q 235 474 220 446 q 211 431 207 416 q 203 402 200 376 q 196 350 196 308 q 196 211 209 166 q 222 121 247 101 q 262 91 274 91 q 295 91 306 110 q 311 119 312 134 q 313 149 313 167 z"},"j":{"x_min":0,"x_max":265,"ha":265,"o":"m 130 581 q 89 581 60 604 q 30 628 30 664 q 30 705 55 730 q 80 756 125 756 q 172 756 197 732 q 222 708 222 666 q 222 630 196 606 q 171 581 130 581 z m 154 -145 q 123 -162 63 -169 q 56 -170 42 -170 q 25 -170 0 -165 q 22 -152 34 -133 q 51 -109 51 -90 l 51 434 q 51 456 26 481 l 15 490 q 46 490 71 493 q 96 496 122 503 q 149 510 170 518 q 192 527 216 540 l 216 -60 q 216 -110 154 -145 z"},"i":{"x_min":0,"x_max":265,"ha":265,"o":"m 129 581 q 87 581 58 604 q 30 628 30 664 q 30 704 55 730 q 80 756 125 756 q 172 756 196 732 q 221 709 221 666 q 221 630 196 606 q 170 581 129 581 z m 14 0 l 29 17 q 50 46 50 76 l 50 427 q 50 469 15 490 q 67 490 118 503 q 168 516 215 540 l 215 75 q 215 58 229 31 q 240 12 240 11 q 245 5 251 0 z"},"y":{"x_min":0,"x_max":503,"ha":503,"o":"m 497 470 q 457 386 442 353 q 440 348 418 298 l 281 -53 q 263 -98 235 -126 q 182 -176 124 -176 q 104 -176 81 -169 q 58 -162 40 -148 q 22 -134 15 -116 q 8 -98 8 -82 q 8 -51 28 -30 q 49 -10 82 -10 q 112 -10 142 -27 l 151 -33 l 168 -45 l 171 -48 q 176 -51 182 -51 q 187 -51 196 -47 q 205 -43 213 -27 q 217 -21 220 -12 q 222 -3 220 3 l 31 431 q 22 451 -2 475 l -14 486 l 33 499 l 171 542 q 176 521 177 517 q 179 508 185 493 l 212 436 l 311 208 l 360 357 q 367 382 367 407 q 367 415 366 425 q 364 435 363 441 q 355 481 328 511 l 517 511 z"},".":{"x_min":0,"x_max":266,"ha":266,"o":"m 158 -13 q 147 -17 132 -17 q 118 -17 106 -13 q 71 -3 54 22 q 36 46 36 81 q 36 112 53 135 q 70 158 94 166 q 117 173 138 173 q 173 173 201 147 q 225 124 230 90 q 234 55 214 26 q 194 -3 158 -13 z"},"p":{"x_min":0,"x_max":525,"ha":525,"o":"m 449 157 q 426 123 382 88 q 333 49 265 14 l 213 -11 l 213 -91 q 213 -100 222 -122 q 232 -144 246 -158 l 15 -158 l 29 -138 q 40 -117 44 -104 q 48 -90 48 -80 l 48 418 q 48 462 14 490 q 27 490 42 492 q 58 493 66 494 q 142 504 213 540 l 213 486 q 220 491 227 496 q 231 499 243 504 q 303 534 351 534 q 433 534 477 447 q 488 425 496 396 q 503 368 503 333 q 503 279 492 242 q 482 205 449 157 z m 312 385 q 302 410 285 423 q 268 436 249 436 q 230 436 213 422 l 213 55 q 247 69 266 92 q 285 115 308 171 q 318 194 322 226 q 326 258 326 301 q 326 335 323 350 q 320 366 312 385 z"},"X":{"x_min":0,"x_max":727,"ha":727,"o":"m 414 0 l 421 13 q 429 32 431 39 q 433 46 433 57 q 433 83 407 126 l 399 140 l 306 288 l 263 222 q 208 138 208 79 q 208 27 250 0 l -7 0 l 34 42 q 73 83 117 135 q 154 179 181 214 l 273 340 l 72 660 q 68 666 59 675 q 50 684 33 698 q 16 712 14 713 q 4 718 0 720 l 316 720 l 311 710 q 301 686 301 664 q 301 636 329 590 l 400 476 l 462 565 l 471 581 q 488 617 488 641 q 488 673 462 705 l 447 720 l 702 720 q 625 666 562 586 l 434 422 l 620 127 q 642 91 689 44 q 711 22 741 0 z"},"*":{"x_min":0,"x_max":385,"ha":385,"o":"m 239 505 l 223 523 l 213 537 l 205 548 l 199 546 l 211 513 q 225 472 228 458 q 232 445 232 434 q 232 414 218 403 q 204 392 184 395 q 147 400 147 439 q 147 453 149 460 l 169 515 l 172 523 l 180 546 l 174 546 l 155 525 l 151 520 q 122 483 118 478 q 104 462 94 458 q 85 453 76 453 q 45 453 37 487 q 36 492 36 500 q 36 540 86 551 l 110 555 l 123 557 l 165 564 l 165 569 l 118 578 l 96 582 q 71 588 62 591 q 52 594 46 598 q 31 607 31 625 q 31 643 48 660 q 65 677 79 677 q 104 677 148 611 q 151 606 156 600 q 162 594 175 583 l 182 584 l 168 617 q 142 675 142 700 q 142 731 186 731 q 231 731 231 699 q 231 695 227 681 l 209 628 l 206 619 l 194 584 l 199 584 l 218 606 l 224 614 l 255 653 l 257 656 l 273 668 q 285 673 294 673 q 323 673 335 644 q 337 639 338 634 q 339 629 339 624 q 339 601 321 594 l 297 587 l 245 575 l 236 573 l 211 567 l 210 561 l 242 555 q 290 546 306 542 q 321 538 329 532 q 345 519 345 502 q 345 489 335 476 q 321 458 305 458 q 280 458 239 505 z"},"Y":{"x_min":0,"x_max":655,"ha":655,"o":"m 644 688 q 619 656 586 605 q 567 576 556 557 l 553 550 l 522 492 l 407 276 l 407 72 q 407 58 416 41 q 424 24 438 13 q 446 5 458 0 l 179 0 l 194 14 q 210 31 218 49 q 227 67 227 78 l 227 247 q 227 265 227 284 q 224 292 223 295 l 203 328 l 25 688 q 18 703 -3 715 l -14 720 l 260 720 q 248 697 248 670 q 248 653 254 633 l 261 616 l 380 376 l 472 568 q 482 590 482 620 q 482 626 481 634 q 480 643 480 648 q 476 687 446 720 l 669 720 z"},"c":{"x_min":0,"x_max":484,"ha":484,"o":"m 381 -1 q 339 -21 287 -21 q 268 -21 257 -20 q 246 -19 223 -14 q 189 -9 152 12 q 93 45 58 108 q 22 172 22 249 q 22 270 25 291 q 33 354 50 392 q 68 429 105 465 q 124 484 146 497 q 203 533 270 533 q 287 533 304 530 q 359 521 390 498 q 422 475 433 438 q 439 418 439 400 q 439 360 414 336 q 388 311 347 311 q 306 311 282 335 q 258 359 258 402 q 258 414 259 420 q 264 452 285 473 q 269 484 252 484 q 205 484 186 428 q 180 409 178 384 q 175 358 175 316 q 175 280 195 234 q 258 76 385 76 q 417 76 452 88 l 470 95 q 462 64 442 42 q 421 19 381 -1 z"},"!":{"x_min":0,"x_max":306,"ha":306,"o":"m 250 568 l 179 218 l 139 216 l 51 594 l 48 619 q 48 697 120 718 q 146 725 161 725 q 202 725 234 686 q 255 660 255 612 q 255 599 254 592 z m 180 -13 q 169 -17 154 -17 q 140 -17 128 -13 q 93 -3 76 22 q 58 46 58 81 q 58 112 75 135 q 92 158 116 166 q 139 173 160 173 q 195 173 223 147 q 248 124 250 105 q 252 86 252 78 q 252 46 232 21 q 212 -4 180 -13 z"},"/":{"x_min":0,"x_max":342,"ha":342,"o":"m 120 -6 l 36 16 l 222 712 l 306 689 z"},"6":{"x_min":0,"x_max":603,"ha":603,"o":"m 433 5 q 377 -19 320 -19 q 308 -19 296 -19 q 279 -16 270 -15 q 150 3 78 99 q 50 137 36 177 q 18 227 18 283 l 18 345 q 18 390 30 432 q 39 465 60 506 q 99 586 171 643 q 210 675 248 694 q 286 713 359 738 l 383 746 l 392 730 l 373 719 q 294 672 256 628 q 217 585 195 520 q 180 472 180 424 q 180 373 198 304 q 211 256 228 220 q 244 185 266 154 q 288 124 314 102 q 341 79 364 69 q 386 59 404 59 q 430 59 448 76 q 467 94 470 116 q 473 139 473 147 q 473 166 467 195 q 452 266 406 310 q 371 346 330 362 q 288 379 242 379 l 225 407 q 329 451 425 509 l 452 497 q 489 478 516 446 q 543 415 564 364 q 585 313 585 262 q 585 253 585 248 q 585 242 585 236 q 583 228 583 224 q 574 140 538 88 q 501 35 433 5 z"},"r":{"x_min":0,"x_max":419,"ha":419,"o":"m 316 366 q 285 379 268 398 q 230 405 215 371 l 215 62 q 215 35 239 12 q 245 5 254 0 l 14 0 l 28 15 q 49 44 49 68 l 49 408 q 49 434 33 456 l 14 476 l 63 491 l 113 507 l 164 523 l 215 540 l 215 445 l 230 466 q 259 503 280 516 q 300 530 316 532 q 333 535 343 535 q 384 535 408 508 q 433 482 433 438 q 433 399 413 378 q 393 356 360 356 q 337 356 316 366 z"},"2":{"x_min":0,"x_max":602,"ha":602,"o":"m 498 40 l 488 0 l 12 0 l 70 53 q 226 198 291 305 q 352 405 352 501 q 352 576 330 612 q 308 647 272 647 q 245 647 226 632 q 207 616 204 602 q 202 589 202 578 q 202 570 204 557 q 207 544 212 525 q 214 513 214 506 q 214 496 209 479 l 203 464 q 173 412 125 412 q 107 412 83 420 q 22 440 22 516 q 22 530 25 547 q 36 604 100 647 q 128 666 163 678 q 198 690 244 690 q 390 690 468 636 q 547 582 547 484 q 547 435 530 396 q 512 358 471 319 l 441 294 l 251 153 l 446 154 q 459 154 479 160 q 499 165 531 178 l 552 189 q 518 116 498 40 z"},"9":{"x_min":0,"x_max":603,"ha":603,"o":"m 542 185 q 503 106 431 47 q 389 14 354 -4 q 318 -22 242 -47 l 218 -55 l 210 -40 l 229 -29 q 307 17 346 62 q 385 107 406 171 q 422 218 422 270 q 422 319 404 387 q 379 477 337 535 q 313 567 286 590 q 260 612 238 622 q 216 632 198 632 q 172 632 154 614 q 136 597 132 574 q 129 550 129 541 q 129 522 136 492 q 142 462 158 432 q 174 402 195 381 q 231 345 272 328 q 314 312 360 312 l 377 284 q 280 243 177 182 l 150 193 q 113 213 86 244 q 58 276 37 326 q 16 375 16 428 q 16 437 17 448 q 18 460 18 467 q 37 628 169 685 q 225 709 280 709 q 295 709 311 709 q 326 706 332 705 q 452 689 524 592 q 550 556 566 510 q 583 463 583 408 q 584 398 584 390 q 585 383 585 377 q 585 369 585 361 q 583 351 583 346 q 583 302 572 264 q 561 225 542 185 z"}," ":{"x_min":0,"x_max":290,"ha":290,"o":""},"I":{"x_min":0,"x_max":292,"ha":292,"o":"m 25 0 l 18 2 l 33 19 q 57 49 57 83 l 57 655 q 57 666 50 679 q 44 692 28 709 l 14 720 l 276 720 l 262 706 q 249 690 243 676 q 237 661 237 652 l 237 85 q 237 26 278 0 z"},"H":{"x_min":0,"x_max":696,"ha":696,"o":"m 449 0 l 460 15 q 477 42 482 59 q 488 76 488 97 l 471 264 l 237 262 l 237 81 q 237 61 246 38 q 255 15 270 0 l 14 0 q 35 24 46 52 q 57 80 57 109 l 57 630 q 57 691 15 720 l 285 720 l 277 712 q 253 685 245 670 q 237 655 237 638 l 237 335 l 463 336 l 433 637 q 430 661 422 676 q 414 691 393 710 l 381 720 l 655 720 q 647 712 641 705 q 635 698 631 690 q 615 662 615 628 q 615 618 616 612 l 670 83 q 673 48 694 20 q 696 17 701 10 q 704 6 710 0 z"},"4":{"x_min":0,"x_max":602,"ha":602,"o":"m 543 133 q 521 147 487 147 l 487 96 q 487 65 514 29 l 529 13 q 451 13 403 5 q 355 -3 293 -21 l 258 -32 l 274 -8 q 299 33 308 53 q 316 73 316 85 l 316 154 l 78 152 l 43 152 q 29 152 2 144 l 20 180 q 82 305 94 348 q 105 391 105 495 l 102 542 l 100 568 l 99 578 q 99 602 102 617 q 106 632 112 641 q 130 674 145 686 q 160 698 176 700 q 193 703 201 703 q 227 703 255 683 q 295 655 295 601 q 295 593 295 589 q 295 582 293 568 q 285 502 248 428 q 208 348 134 260 l 110 232 l 101 222 l 91 211 l 313 212 l 313 635 l 343 640 q 420 657 492 685 l 492 213 q 497 211 508 211 q 545 211 561 243 l 561 121 q 550 130 543 133 z"},"~":{"x_min":0,"x_max":300,"ha":300,"o":"m 296 655 q 285 616 266 598 q 246 579 210 579 q 162 579 67 618 q 62 620 43 620 l 31 617 q 11 608 11 590 l 0 589 l 5 610 q 17 646 37 664 q 57 681 91 681 q 138 681 230 647 l 242 645 q 265 642 279 656 q 288 665 289 675 l 300 675 z"},"D":{"x_min":0,"x_max":749,"ha":749,"o":"m 461 21 q 426 10 384 5 q 343 0 271 0 l 15 0 l 34 24 q 59 65 59 105 l 59 619 l 48 611 l 37 604 l 24 595 l 12 585 l -7 634 l 15 654 q 56 690 98 710 q 139 729 199 741 q 233 748 278 748 q 314 748 364 742 q 445 730 507 700 q 601 654 654 582 q 706 510 718 408 l 718 335 q 706 214 644 138 q 581 61 461 21 z m 462 584 q 438 617 412 639 q 387 661 361 673 q 314 694 280 694 q 272 694 262 692 q 251 691 239 687 l 239 51 l 268 51 q 355 59 418 117 q 473 167 494 234 q 515 300 515 415 q 515 471 502 509 q 489 547 462 584 z"},"0":{"x_min":0,"x_max":604,"ha":604,"o":"m 470 61 q 391 -12 303 -12 q 234 -12 164 35 q 124 61 98 98 q 71 134 50 193 q 39 225 34 257 q 28 289 28 333 l 29 371 q 29 406 32 428 q 36 450 45 477 q 64 534 77 560 q 90 585 115 613 q 198 703 300 703 q 313 703 322 702 q 331 701 348 698 q 417 686 466 644 q 514 601 545 523 q 560 484 567 451 q 574 418 574 376 q 574 264 549 188 q 524 111 470 61 z m 448 399 q 419 442 390 474 q 360 505 331 525 q 258 576 203 576 q 135 576 110 503 q 105 490 104 478 q 102 466 102 454 q 102 424 114 390 q 127 356 156 310 q 180 274 210 241 q 254 192 286 169 q 319 146 359 135 q 382 129 402 129 q 451 129 479 162 q 507 195 507 250 q 507 287 494 317 q 482 347 448 399 z"},"F":{"x_min":0,"x_max":638,"ha":638,"o":"m 619 548 q 596 548 572 552 q 549 555 520 566 q 490 576 462 591 q 428 609 361 651 q 354 655 346 658 q 339 661 326 664 q 312 668 293 670 q 274 673 258 673 l 238 673 l 238 445 l 299 442 q 389 442 440 454 q 490 467 527 498 q 555 415 595 333 l 606 310 l 617 289 l 570 280 l 537 303 q 464 348 403 365 q 342 382 303 382 q 287 382 271 379 q 255 376 238 371 l 238 79 q 238 67 246 50 q 253 33 268 15 l 283 0 l 14 0 q 57 43 57 107 l 57 635 q 57 642 54 652 q 52 661 47 673 q 36 700 15 720 l 448 720 q 491 720 514 725 q 537 730 563 745 l 574 703 q 602 620 645 553 z"},"`":{"x_min":0,"x_max":218,"ha":218,"o":"m 174 578 l 0 735 l 120 735 l 218 578 z"},"k":{"x_min":0,"x_max":543,"ha":543,"o":"m 303 0 l 312 11 q 322 27 322 43 q 322 51 319 59 l 243 232 l 215 197 l 215 72 q 215 54 225 33 q 232 17 247 0 l 14 0 q 49 34 49 89 l 49 586 l 49 624 q 49 637 46 647 q 44 657 37 672 q 30 688 14 706 q 43 706 70 709 q 150 720 215 756 l 215 285 l 322 417 q 332 430 332 448 q 332 471 316 500 l 309 511 l 532 511 q 511 500 499 488 l 497 486 l 472 459 l 356 334 l 496 69 q 511 39 512 38 q 520 25 535 12 l 550 0 z"},"u":{"x_min":0,"x_max":526,"ha":526,"o":"m 311 0 l 311 39 q 304 33 301 30 q 293 23 282 16 q 251 -5 219 -12 q 187 -20 164 -20 q 52 -20 52 120 l 51 144 l 51 436 q 51 447 46 458 q 40 468 27 480 l 14 490 q 38 490 64 494 q 91 498 118 504 q 144 510 168 519 q 193 528 217 540 l 217 120 q 217 101 232 88 q 247 75 267 75 q 285 75 298 89 q 311 103 311 120 l 311 434 q 311 438 309 443 q 307 448 299 462 q 291 477 273 490 q 382 490 476 540 l 476 75 q 476 46 498 15 l 512 0 z"},"U":{"x_min":0,"x_max":666,"ha":666,"o":"m 614 702 q 597 669 588 633 q 580 597 580 553 q 580 529 583 493 q 586 457 591 414 l 622 158 q 623 153 623 143 q 623 72 550 27 q 469 -23 324 -23 q 282 -23 256 -20 q 229 -17 202 -10 q 109 16 76 56 q 43 96 43 176 l 44 200 l 84 566 l 86 584 q 86 646 85 656 q 81 695 52 720 l 319 720 q 279 690 273 634 l 223 180 q 219 152 241 112 q 257 83 289 64 q 321 45 368 45 q 376 44 382 44 q 389 44 396 44 q 470 44 510 77 q 550 110 550 163 q 550 174 549 180 l 508 492 q 505 511 505 514 q 503 524 500 536 q 485 608 470 640 q 456 671 424 706 l 411 720 l 623 720 z"},"o":{"x_min":0,"x_max":530,"ha":530,"o":"m 474 110 q 444 58 406 28 q 368 -2 317 -14 q 290 -21 260 -21 q 137 -21 60 100 q 42 127 32 160 q 22 192 22 233 l 22 268 l 25 302 q 31 344 44 377 q 56 410 77 437 q 154 535 267 535 q 289 535 300 533 q 363 524 412 484 q 460 444 487 375 q 500 343 504 312 q 507 281 507 226 q 501 160 474 110 z m 321 379 l 320 404 q 315 446 303 463 q 291 480 267 480 q 238 480 223 462 q 208 444 208 401 l 208 125 q 208 77 222 54 q 237 30 263 30 q 271 30 286 34 q 302 38 312 57 q 321 76 321 113 z"},"N":{"x_min":0,"x_max":700,"ha":700,"o":"m 557 -16 l 549 -19 l 519 -31 l 150 547 l 150 241 q 150 230 150 220 q 150 210 152 198 q 157 133 166 102 q 174 72 195 41 q 210 18 230 0 l -6 0 q 33 47 51 96 q 62 128 67 158 q 72 188 72 231 l 72 643 q 33 693 -22 720 l 334 720 q 316 694 316 664 q 316 643 327 615 l 336 598 l 564 236 l 564 505 l 563 524 q 556 591 543 626 q 530 662 497 700 l 478 720 l 703 720 l 689 698 q 658 645 646 609 q 633 573 633 537 l 633 127 q 640 98 662 76 q 685 54 714 49 q 677 38 652 28 q 628 18 557 -16 z"},"G":{"x_min":0,"x_max":786,"ha":786,"o":"m 750 306 q 723 264 726 237 l 752 -21 q 718 6 667 6 q 659 6 651 6 q 638 4 632 4 q 614 4 580 -6 q 546 -15 520 -22 q 494 -29 454 -29 q 417 -29 366 -21 q 314 -13 286 -3 q 258 7 214 34 q 124 89 76 172 q 28 255 28 355 q 28 404 40 454 q 60 532 104 592 q 167 676 251 713 q 319 743 385 743 q 460 743 573 703 q 579 701 585 701 q 591 701 610 705 q 629 709 649 722 q 652 716 662 692 q 672 668 679 656 l 725 578 l 729 572 l 743 548 q 714 539 686 539 q 638 539 580 569 q 522 599 440 667 q 434 672 422 676 q 411 680 392 683 q 373 686 366 686 q 309 686 269 635 q 225 579 215 476 q 215 426 219 384 q 223 341 235 299 q 247 257 262 222 q 277 186 293 160 q 309 134 327 116 q 366 75 412 54 q 457 34 502 34 q 537 34 564 44 l 543 257 l 444 266 q 439 266 432 268 q 425 269 421 270 q 348 295 348 369 q 348 412 371 438 q 406 474 443 474 q 476 474 496 458 q 517 442 517 418 q 517 394 502 378 q 488 361 466 361 q 460 361 457 362 l 439 368 q 422 376 413 388 q 407 377 407 367 q 407 336 451 325 l 468 323 l 764 323 z"},"q":{"x_min":0,"x_max":549,"ha":549,"o":"m 300 -158 q 330 -135 330 -89 l 330 13 l 304 1 l 279 -10 q 259 -17 227 -17 q 201 -17 173 -10 q 145 -3 119 15 q 93 33 64 69 q 42 98 30 134 q 19 170 19 224 q 19 314 39 368 q 59 423 106 464 l 129 483 q 191 526 271 533 q 320 533 354 528 q 387 522 428 510 q 436 507 447 507 q 456 507 474 510 q 491 513 511 526 l 502 501 q 497 482 497 467 l 497 -87 q 497 -138 532 -158 z m 331 378 l 331 388 l 330 421 q 330 446 320 461 q 311 476 298 480 q 286 485 278 485 q 250 485 230 450 q 210 414 203 338 q 202 330 202 320 q 201 311 201 306 q 201 296 201 286 q 201 275 202 265 q 202 214 211 177 q 220 140 235 112 q 263 65 297 65 q 315 65 331 79 z"},"d":{"x_min":0,"x_max":528,"ha":528,"o":"m 313 0 l 313 36 l 298 24 q 246 -14 198 -14 q 151 -14 104 24 q 83 41 68 64 q 53 88 39 130 q 30 157 26 187 q 22 217 22 252 q 22 387 87 466 q 146 538 230 538 q 280 533 313 503 l 313 656 q 313 664 307 674 q 301 685 287 697 l 275 706 l 330 709 q 409 720 479 756 l 479 83 q 479 44 501 16 l 514 0 z m 313 399 q 313 433 297 450 q 281 466 261 466 q 242 466 228 450 q 221 441 216 430 q 212 420 206 398 q 197 362 197 271 q 197 181 207 141 q 217 101 240 78 q 254 63 271 63 q 291 63 303 82 q 313 95 313 109 z"},"1":{"x_min":0,"x_max":602,"ha":602,"o":"m 190 0 l 203 42 l 210 81 l 210 559 q 210 604 180 628 q 291 650 394 707 l 394 78 q 394 52 408 18 l 416 0 z"},"5":{"x_min":0,"x_max":602,"ha":602,"o":"m 493 606 q 466 570 427 550 q 388 531 323 521 q 299 518 273 518 q 230 518 180 527 l 157 533 l 117 404 l 155 416 l 188 425 l 195 427 q 220 432 222 432 q 241 435 259 435 l 318 435 q 355 435 380 429 q 405 423 436 410 q 501 383 537 333 q 573 283 573 225 q 573 153 519 91 q 485 52 441 28 q 404 7 356 -2 q 308 -12 242 -12 q 165 -12 88 22 l 72 29 l 58 35 l 43 43 l 29 50 l 34 70 l 59 64 q 102 53 141 53 q 149 53 157 53 q 167 55 172 55 q 254 64 302 108 q 349 152 357 222 q 358 229 358 235 q 358 240 358 242 q 358 303 320 340 q 283 378 219 378 q 200 378 173 373 q 122 363 72 336 l 43 318 l 168 696 l 193 688 q 301 660 381 660 q 459 660 530 687 q 521 644 493 606 z"}}}
